<svg width="127" height="30" viewBox="0 0 127 30" fill="none" xmlns="http://www.w3.org/2000/svg">
<path d="M0.056 12.736C0.056 10.5173 0.536 8.544 1.496 6.816C2.456 5.06667 3.78933 3.712 5.496 2.752C7.224 1.77067 9.176 1.28 11.352 1.28C14.0187 1.28 16.3013 1.984 18.2 3.392C20.0987 4.8 21.368 6.72 22.008 9.152H15.992C15.544 8.21333 14.904 7.49867 14.072 7.008C13.2613 6.51733 12.3333 6.272 11.288 6.272C9.60267 6.272 8.23733 6.85867 7.192 8.032C6.14667 9.20533 5.624 10.7733 5.624 12.736C5.624 14.6987 6.14667 16.2667 7.192 17.44C8.23733 18.6133 9.60267 19.2 11.288 19.2C12.3333 19.2 13.2613 18.9547 14.072 18.464C14.904 17.9733 15.544 17.2587 15.992 16.32H22.008C21.368 18.752 20.0987 20.672 18.2 22.08C16.3013 23.4667 14.0187 24.16 11.352 24.16C9.176 24.16 7.224 23.68 5.496 22.72C3.78933 21.7387 2.456 20.384 1.496 18.656C0.536 16.928 0.056 14.9547 0.056 12.736ZM36.335 5.952C38.383 5.952 40.0257 6.63467 41.263 8C42.5003 9.344 43.119 11.2 43.119 13.568V24H37.679V14.304C37.679 13.1093 37.3697 12.1813 36.751 11.52C36.1323 10.8587 35.3003 10.528 34.255 10.528C33.2097 10.528 32.3777 10.8587 31.759 11.52C31.1403 12.1813 30.831 13.1093 30.831 14.304V24H25.359V0.32H30.831V8.544C31.3857 7.75467 32.143 7.12533 33.103 6.656C34.063 6.18667 35.1403 5.952 36.335 5.952ZM45.8335 15.04C45.8335 13.2053 46.1748 11.5947 46.8575 10.208C47.5615 8.82133 48.5108 7.75467 49.7055 7.008C50.9002 6.26133 52.2335 5.888 53.7055 5.888C54.9642 5.888 56.0628 6.144 57.0015 6.656C57.9615 7.168 58.6975 7.84 59.2095 8.672V6.144H64.6815V24H59.2095V21.472C58.6762 22.304 57.9295 22.976 56.9695 23.488C56.0308 24 54.9322 24.256 53.6735 24.256C52.2228 24.256 50.9002 23.8827 49.7055 23.136C48.5108 22.368 47.5615 21.2907 46.8575 19.904C46.1748 18.496 45.8335 16.8747 45.8335 15.04ZM59.2095 15.072C59.2095 13.7067 58.8255 12.6293 58.0575 11.84C57.3108 11.0507 56.3935 10.656 55.3055 10.656C54.2175 10.656 53.2895 11.0507 52.5215 11.84C51.7748 12.608 51.4015 13.6747 51.4015 15.04C51.4015 16.4053 51.7748 17.4933 52.5215 18.304C53.2895 19.0933 54.2175 19.488 55.3055 19.488C56.3935 19.488 57.3108 19.0933 58.0575 18.304C58.8255 17.5147 59.2095 16.4373 59.2095 15.072ZM78.5923 19.36V24H75.8083C73.8243 24 72.2776 23.52 71.1683 22.56C70.0589 21.5787 69.5043 19.9893 69.5043 17.792V10.688H67.3283V6.144H69.5043V1.792H74.9763V6.144H78.5603V10.688H74.9763V17.856C74.9763 18.3893 75.1043 18.7733 75.3603 19.008C75.6163 19.2427 76.0429 19.36 76.6403 19.36H78.5923ZM92.918 18.4219H83.8809L81.8301 24H80.0664L87.5996 4.09375H89.1992L96.7324 24H94.9824L92.918 18.4219ZM84.4004 16.9863H92.3848L88.3926 6.14453L84.4004 16.9863ZM111.184 16.7539C111.184 19.0599 110.673 20.8919 109.652 22.25C108.632 23.599 107.264 24.2734 105.551 24.2734C103.527 24.2734 101.978 23.5625 100.902 22.1406V29.6875H99.2754V9.20703H100.793L100.875 11.2988C101.941 9.72201 103.486 8.93359 105.51 8.93359C107.278 8.93359 108.663 9.60352 109.666 10.9434C110.678 12.2832 111.184 14.1426 111.184 16.5215V16.7539ZM109.543 16.4668C109.543 14.5801 109.156 13.0898 108.381 11.9961C107.606 10.9023 106.526 10.3555 105.141 10.3555C104.138 10.3555 103.277 10.597 102.557 11.0801C101.837 11.5632 101.285 12.265 100.902 13.1855V20.2812C101.294 21.1289 101.855 21.776 102.584 22.2227C103.313 22.6693 104.174 22.8926 105.168 22.8926C106.544 22.8926 107.615 22.3457 108.381 21.252C109.156 20.1491 109.543 18.554 109.543 16.4668ZM126.715 16.7539C126.715 19.0599 126.204 20.8919 125.184 22.25C124.163 23.599 122.796 24.2734 121.082 24.2734C119.059 24.2734 117.509 23.5625 116.434 22.1406V29.6875H114.807V9.20703H116.324L116.406 11.2988C117.473 9.72201 119.018 8.93359 121.041 8.93359C122.809 8.93359 124.195 9.60352 125.197 10.9434C126.209 12.2832 126.715 14.1426 126.715 16.5215V16.7539ZM125.074 16.4668C125.074 14.5801 124.687 13.0898 123.912 11.9961C123.137 10.9023 122.057 10.3555 120.672 10.3555C119.669 10.3555 118.808 10.597 118.088 11.0801C117.368 11.5632 116.816 12.265 116.434 13.1855V20.2812C116.826 21.1289 117.386 21.776 118.115 22.2227C118.844 22.6693 119.706 22.8926 120.699 22.8926C122.076 22.8926 123.146 22.3457 123.912 21.252C124.687 20.1491 125.074 18.554 125.074 16.4668Z" fill="white"/>
</svg>
